# xmcd
#
# Track frame offsets: 
#        150
#        12742
#        25817
#        36005
#        48020
#        60562
#        72325
#        83829
#        96380
#        108410
#        122237
#        133215
#        144715
#        155695
#        168242
#        180795
#        191777
#        202759
#        213877
#        224862
#        237417
#
# Disc length: 3337 seconds
#
# Revision: 0
# Processed by: cddbd v1.5.2PL0 Copyright (c) Steve Scherf et al.
# Submitted via: ExactAudioCopy v0.99pb5
#
DISCID=340d0715
DTITLE=김용임 - 옛날노래(cd1)
DYEAR=2016
DGENRE=Blues
TTITLE0=울며헤진 부산항
TTITLE1=화류춘몽
TTITLE2=남강의 추억
TTITLE3=비내리는 고모령
TTITLE4=잘있거라 황진이
TTITLE5=애수의 소야곡
TTITLE6=선창
TTITLE7=찔레꽃
TTITLE8=가거라 3.8선
TTITLE9=개나리 처녀
TTITLE10=서귀포 칠십리
TTITLE11=고향의 그림자
TTITLE12=물새야 왜우느냐
TTITLE13=짝사랑
TTITLE14=처녀 뱃사공
TTITLE15=울고넘는 박달재
TTITLE16=청춘고백
TTITLE17=불효자는 웁니다
TTITLE18=울어라 기타줄
TTITLE19=번지없는 주막
TTITLE20=추억
EXTD=
EXTT0=
EXTT1=
EXTT2=
EXTT3=
EXTT4=
EXTT5=
EXTT6=
EXTT7=
EXTT8=
EXTT9=
EXTT10=
EXTT11=
EXTT12=
EXTT13=
EXTT14=
EXTT15=
EXTT16=
EXTT17=
EXTT18=
EXTT19=
EXTT20=
PLAYORDER=
